PathFileType	4	(X/Y/Z)	D:\Share\Shared_Data\Ergonomics\Sit To Stand Pertubation\S2\Perturbed.trc
DataRate	CameraRate	NumFrames	NumMarkers	Units	OrigDataRate	OrigDataStartFrame	OrigNumFrames	
100	100	16	18	m	100	8716	201
Frame#	Time	R_Toe			R_ASIS			R_Pelvis			V_Sacral			L_Pelvis			L_ASIS			Clavical			R_Acromium			L_Acromium			Sternum			Torso			R_Thigh_Med			R_Thigh_Lat			R_Thigh			R_Shank_Med			R_Shank_Lat			R_Shank			R_Heel			
		X1	Y1	Z1	X2	Y2	Z2	X3	Y3	Z3	X4	Y4	Z4	X5	Y5	Z5	X6	Y6	Z6	X7	Y7	Z7	X8	Y8	Z8	X9	Y9	Z9	X10	Y10	Z10	X11	Y11	Z11	X12	Y12	Z12	X13	Y13	Z13	X14	Y14	Z14	X15	Y15	Z15	X16	Y16	Z16	X17	Y17	Z17	X18	Y18	Z18	

8716	87.15	0.43151794	0.067003716	0.14437582	-0.082853256	0.63395575	0.11837674	-0.1610295	0.64492438	0.16626816	-0.29895206	0.58532013	0.014969363	-0.20473012	0.63780426	-0.17383882	-0.10578021	0.65110309	-0.14676344	-0.016523483	1.0239036	-0.0026395872	-0.11265705	1.0525164	0.20182751	-0.11357536	1.0609977	-0.19071773	0.006461874	0.86023328	-0.0045885606	-0.0088397264	0.98194019	-0.11870101	0.30394592	0.51079141	0.12791074	0.26951898	0.51586182	0.23038365	0.11233816	0.62376831	0.17440691	0.29537903	0.11193418	0.11072189	0.27428674	0.10076348	0.20332184	0.27764832	0.362991	0.24187164	0.19426907	0.06165868	0.14932489
8717	87.16	0.43152875	0.066999977	0.1443541	-0.083174919	0.63396838	0.11832747	-0.16125818	0.6449519	0.16615317	-0.29942407	0.58516357	0.014957384	-0.20508452	0.63783844	-0.17365779	-0.10687592	0.65031091	-0.1467993	-0.011300599	1.0216949	-0.0023966999	-0.10696812	1.0516617	0.20203859	-0.10773993	1.0603821	-0.19054756	0.0093198948	0.85774609	-0.0043812737	-0.0041811481	0.9796756	-0.11844105	0.30344485	0.51081903	0.12801062	0.26898911	0.5158197	0.23045006	0.11191436	0.62379352	0.17457909	0.29532571	0.11193567	0.11072784	0.27424066	0.1007628	0.20324709	0.2773287	0.36300262	0.24193237	0.19426888	0.06166782	0.14932346
8718	87.17	0.4315408	0.066994896	0.14432841	-0.083497528	0.63395215	0.11825822	-0.16150179	0.64495081	0.16599849	-0.29989764	0.58501038	0.014950234	-0.20541891	0.63788489	-0.17351659	-0.10793875	0.64952765	-0.14685519	-0.0058177195	1.0192592	-0.00216485	-0.10091039	1.0506703	0.2022554	-0.10159286	1.0596056	-0.19036726	0.01230722	0.85506134	-0.004179606	0.00070725107	0.97719647	-0.11817885	0.30294077	0.5108483	0.12811116	0.2684603	0.51577667	0.23051129	0.11149158	0.6238205	0.17475624	0.29527188	0.11193734	0.1107315	0.27419745	0.10076587	0.20317587	0.27702124	0.36302106	0.24200955	0.19427013	0.06167804	0.14932198
8719	87.18	0.43155377	0.066989548	0.14430057	-0.083811798	0.63390045	0.11817207	-0.16174915	0.64492139	0.16579805	-0.30036768	0.58486719	0.014947084	-0.20572806	0.63793976	-0.17339384	-0.10883694	0.64887653	-0.14693752	-7.171613e-05	1.0165815	-0.0019449444	-0.094472755	1.0495255	0.20247797	-0.09513031	1.0586425	-0.19017429	0.015428058	0.8521723	-0.0039888761	0.0058244019	0.97449139	-0.11791986	0.30242499	0.51087903	0.12821129	0.26793237	0.51573346	0.23056511	0.11106947	0.62385162	0.17493886	0.29521793	0.11193936	0.11073287	0.27415726	0.10077203	0.2031107	0.27671906	0.36304337	0.24209613	0.19427226	0.061688816	0.14932095
8720	87.19	0.43156708	0.066984955	0.14427226	-0.084107742	0.63380676	0.11807162	-0.1619883	0.64486322	0.16554924	-0.30082898	0.58474298	0.014948516	-0.20600668	0.63800232	-0.17327368	-0.10947032	0.64844055	-0.14704939	0.0059421449	1.0136475	-0.0017391262	-0.087645828	1.04821	0.20270546	-0.088348663	1.0574707	-0.18996498	0.018686478	0.84907281	-0.0038135962	0.011168481	0.97155096	-0.11766819	0.3018934	0.51091129	0.12831007	0.26740381	0.51569049	0.23061055	0.11064728	0.62388843	0.17512627	0.29516373	0.11194168	0.11073228	0.27411951	0.10078093	0.2030544	0.27641589	0.36306763	0.24218724	0.19427452	0.061699539	0.14932086
8721	87.2	0.43157999	0.066981834	0.14424506	-0.084375473	0.63366235	0.1179577	-0.16220795	0.64477332	0.16525034	-0.30127652	0.5846474	0.014955222	-0.20624911	0.63807672	-0.17314735	-0.10979399	0.64823499	-0.14719588	0.01223047	1.0104445	-0.0015493594	-0.080423271	1.0467069	0.20293549	-0.081245781	1.0560731	-0.18973698	0.022086271	0.84575769	-0.0036581314	0.016737379	0.9683681	-0.11742652	0.30134412	0.51094418	0.12840732	0.26687228	0.51564758	0.23064787	0.11022375	0.62393152	0.17531723	0.29510834	0.11194386	0.11073032	0.27408334	0.10079272	0.20301141	0.27610623	0.36309204	0.24228085	0.19427599	0.0617094	0.14932187
8722	87.21	0.43159171	0.066980576	0.1442204	-0.084607536	0.6334632	0.11783645	-0.16239807	0.64465082	0.16491483	-0.30170493	0.58459033	0.014967252	-0.20644833	0.63817169	-0.17301285	-0.10981942	0.64820184	-0.14738362	0.018800531	1.0069626	-0.001377355	-0.07280246	1.0450016	0.20316321	-0.073821335	1.0544391	-0.18949193	0.025633051	0.84222394	-0.0035265625	0.022529236	0.96493842	-0.11719604	0.30077728	0.51097638	0.12850542	0.26633582	0.51560437	0.23068051	0.10979764	0.62397955	0.17551036	0.29505087	0.11194525	0.11072801	0.27404849	0.10080814	0.20298883	0.27578534	0.36311514	0.24237767	0.19427618	0.061717415	0.14932408
8723	87.22	0.43160159	0.066981262	0.14419966	-0.084802734	0.63322614	0.11773278	-0.16255112	0.64451172	0.1645984	-0.30210736	0.58458173	0.014984355	-0.20659482	0.63830103	-0.17287407	-0.10956351	0.64826099	-0.14760704	0.025656572	1.0031941	-0.0012279724	-0.06478421	1.0430814	0.20338145	-0.066075798	1.0525626	-0.18923647	0.029336021	0.8384715	-0.0034217761	0.028543287	0.9612605	-0.11697589	0.30019968	0.51100635	0.1286102	0.26579416	0.51556024	0.23071788	0.10936867	0.62402991	0.17570488	0.2949903	0.1119452	0.11072681	0.27401486	0.10082824	0.20299516	0.27544809	0.36313504	0.24248071	0.19427492	0.061722595	0.14932724
8724	87.23	0.4316088	0.066983818	0.14418411	-0.084962257	0.63298303	0.11768539	-0.16265898	0.64438477	0.16438562	-0.30247443	0.58463293	0.01500673	-0.20667557	0.63848242	-0.17273599	-0.10903027	0.64835327	-0.14783784	0.032797531	0.99913538	-0.001111365	-0.056372021	1.0409369	0.20358165	-0.058007961	1.0504423	-0.18898099	0.033205948	0.83450354	-0.003344357	0.034780571	0.95733569	-0.11676413	0.29962683	0.51103317	0.12872949	0.26524905	0.51551495	0.23077496	0.10893806	0.62407849	0.17590096	0.29492639	0.11194336	0.11072856	0.27398285	0.10085403	0.20303851	0.27508963	0.3631492	0.24259415	0.19427223	0.061723957	0.14933067
8725	87.24	0.43161267	0.066988052	0.14417471	-0.085077011	0.63274976	0.11771973	-0.16270523	0.64428619	0.16433086	-0.30279352	0.58475708	0.015035737	-0.20667307	0.63873444	-0.17259862	-0.10826877	0.64841772	-0.1480349	0.040216698	0.99478918	-0.0010410565	-0.047571407	1.0385642	0.2037547	-0.049613522	1.0480811	-0.18873804	0.037249966	0.83032751	-0.0032918749	0.041243492	0.9531684	-0.11656031	0.29907416	0.51105518	0.12887178	0.26470361	0.51546783	0.23086769	0.1085089	0.62412054	0.1761001	0.29485974	0.11193958	0.11073532	0.27395245	0.10088619	0.20312473	0.27470584	0.3631543	0.24272229	0.1942682	0.061720516	0.14933331
8726	87.25	0.43161258	0.066993706	0.14417212	-0.085118088	0.63250336	0.117827	-0.16265947	0.64420074	0.16441444	-0.30304861	0.58497034	0.01507446	-0.20656464	0.63907434	-0.17245465	-0.10740407	0.64836292	-0.14816844	0.047902168	0.99016589	-0.0010300111	-0.038389969	1.0359652	0.20389214	-0.040886219	1.0454877	-0.18852141	0.041468361	0.82595465	-0.0032587938	0.047934162	0.94876526	-0.11636717	0.29854913	0.51106949	0.12904575	0.26416284	0.51541736	0.23100887	0.10808611	0.62415137	0.17630583	0.29479126	0.11193377	0.11074908	0.27392291	0.10092431	0.20325565	0.27429486	0.36314655	0.24286923	0.19426279	0.061711536	0.14933403
8727	87.26	0.43160797	0.067000488	0.144177	-0.085038681	0.63218817	0.1179668	-0.16247908	0.64408685	0.16454895	-0.30321964	0.58529205	0.015127773	-0.20632243	0.63951752	-0.17229164	-0.10659172	0.64808313	-0.14824153	0.055838943	0.98528333	-0.0010876509	-0.028837061	1.0331498	0.20398645	-0.031820454	1.0426761	-0.1883452	0.04585704	0.82140198	-0.0032375782	0.054852142	0.94413818	-0.11619	0.29805527	0.51107294	0.12926135	0.26363461	0.51536157	0.23120839	0.10767634	0.62416693	0.17652397	0.29472162	0.1119256	0.11077154	0.27389185	0.10096529	0.20342599	0.27385825	0.36312213	0.24303966	0.19425592	0.061696793	0.149332
8728	87.27	0.43159833	0.067007858	0.14418982	-0.084789131	0.6317533	0.11809587	-0.1621207	0.64390839	0.16463625	-0.30328214	0.58574426	0.015201748	-0.20591394	0.64007721	-0.17209506	-0.10594264	0.64750952	-0.1482892	0.064013	0.98016669	-0.001217921	-0.018922657	1.0301353	0.20402972	-0.02241313	1.0396656	-0.18822307	0.050414562	0.81669531	-0.0032217433	0.061992805	0.93930536	-0.11603559	0.29760092	0.51106464	0.12953107	0.26313135	0.51529822	0.23147443	0.10728885	0.62416449	0.176763	0.29465091	0.11191442	0.11080377	0.27385461	0.10100246	0.20362093	0.2734021	0.36307828	0.24324002	0.19424757	0.061676376	0.14932721
8729	87.28	0.4315835	0.067015175	0.14421065	-0.08433432	0.63119293	0.11820432	-0.16155249	0.64366827	0.16464001	-0.30320706	0.58635059	0.015302554	-0.20530293	0.64076276	-0.17185072	-0.10546145	0.64667078	-0.14835722	0.072414658	0.97484882	-0.0014183092	-0.0086567163	1.0269456	0.20401253	-0.012664973	1.0364797	-0.18816847	0.055147343	0.8118739	-0.0032096252	0.069347038	0.93429364	-0.11591187	0.29720242	0.51104562	0.12986909	0.26267041	0.51522583	0.23181505	0.10693707	0.62414276	0.17703375	0.29457895	0.11189944	0.11084627	0.27380515	0.10102608	0.20381685	0.27293726	0.36301282	0.24347879	0.19423776	0.061650352	0.14932047
8730	87.29	0.43156326	0.067022057	0.1442394	-0.083655388	0.63054712	0.11832296	-0.16075304	0.64340918	0.16460449	-0.30296085	0.5871344	0.015435471	-0.20445059	0.64157788	-0.17154608	-0.1050341	0.64570776	-0.14848546	0.081036888	0.96936823	-0.0016830951	0.0019502858	1.0236119	0.20392386	-0.0025817313	1.0331434	-0.1881947	0.060068615	0.80698792	-0.0032056041	0.076902191	0.9291391	-0.11582754	0.29688144	0.5110174	0.13028966	0.26227405	0.51514313	0.23223901	0.10663962	0.62410217	0.17734935	0.29450555	0.11187998	0.11089907	0.27373724	0.10102571	0.20398856	0.27247971	0.36292465	0.2437657	0.19422641	0.061618713	0.14931374
8731	87.3	0.43153778	0.067028732	0.14427609	-0.082736908	0.62986682	0.11849815	-0.1597009	0.64318463	0.16460864	-0.3025054	0.58811957	0.015604826	-0.20331694	0.64252161	-0.17117041	-0.10447681	0.644815	-0.14870485	0.089869339	0.96376599	-0.0020099931	0.012885489	1.0201718	0.20375206	0.0078247676	1.0296855	-0.18831474	0.065195557	0.80209113	-0.0032177863	0.084643654	0.9238855	-0.11579174	0.29666266	0.51098001	0.13080598	0.26196878	0.51504785	0.232756	0.10642012	0.62404413	0.1777256	0.29443118	0.11185607	0.11096233	0.27364688	0.10099338	0.20411961	0.27205054	0.36281296	0.24411072	0.19421291	0.061581142	0.14930974
